<?xml version="1.0" encoding="utf-8"?>
<!-- Generator: Adobe Illustrator 19.2.1, SVG Export Plug-In . SVG Version: 6.00 Build 0)  -->
<svg version="1.1" id="Layer_1" xmlns="http://www.w3.org/2000/svg" xmlns:xlink="http://www.w3.org/1999/xlink" x="0px" y="0px"
	 viewBox="0 0 207 165.1" style="enable-background:new 0 0 207 165.1;" xml:space="preserve">
<style type="text/css">
	.st0{fill:#F15A24;}
	.st1{fill:#C1272D;}
	.st2{fill:#FFFFFF;}
</style>
<title>yhelp</title>
<g>
	<path class="st0" d="M139.8,153.5l-12.2-1.3c-2.9-0.3-5.9,0.3-8.5,1.8l-10.7,6.1c-5.3,3-11.9,2.4-16.4-1.7l-9.1-8.2
		c-2.2-2-5-3.2-7.9-3.5l-12.2-1.3c-6-0.6-11-5.1-12.3-11l-2.6-12c-0.6-2.9-2.1-5.5-4.3-7.5l-9.1-8.2c-4.5-4.1-5.9-10.6-3.4-16.1
		l5-11.2c1.2-2.7,1.5-5.7,0.9-8.6l-2.6-12c-1.3-5.9,1.4-12,6.7-15.1l10.6-6.1c2.6-1.5,4.6-3.7,5.8-6.4l5-11.2
		c2.5-5.6,8.2-8.9,14.3-8.2l12.2,1.3c2.9,0.3,5.9-0.3,8.5-1.8l10.7-6.2c5.3-3,11.9-2.4,16.4,1.7l9.1,8.2c2.2,2,5,3.2,7.9,3.5
		l12.2,1.3c6,0.6,11,5.1,12.3,11l2.5,12c0.6,2.9,2.1,5.5,4.3,7.5l9.1,8.2c4.5,4.1,5.9,10.6,3.4,16.1l-5,11.2
		c-1.2,2.7-1.5,5.7-0.9,8.6l2.5,12c1.3,5.9-1.4,12-6.7,15.1l-10.6,6.1c-2.6,1.5-4.6,3.7-5.8,6.4l-5,11.2
		C151.6,150.8,145.8,154.2,139.8,153.5z"/>
	<path class="st1" d="M101.4,165.1c-4.2,0-8.3-1.6-11.4-4.4l-9.1-8.2c-1.7-1.6-3.9-2.5-6.2-2.8l-12.2-1.3
		c-7.3-0.8-13.4-6.2-14.9-13.4L45,123c-0.5-2.3-1.7-4.3-3.4-5.9l-9.1-8.2c-5.5-4.9-7.2-12.8-4.2-19.6l5-11.2
		c0.9-2.1,1.2-4.5,0.7-6.8l-2.6-12C30,52.1,33.3,44.7,39.6,41l10.6-6.1c2-1.2,3.6-2.9,4.6-5.1l5-11.2c3-6.7,10-10.8,17.3-10
		l12.2,1.2c2.3,0.2,4.7-0.3,6.7-1.4l10.6-6.1c6.4-3.7,14.4-2.9,19.9,2.1l9.1,8.2c1.7,1.6,3.9,2.5,6.2,2.8l12.2,1.3
		c7.3,0.8,13.4,6.2,14.9,13.4l2.5,12c0.5,2.3,1.7,4.3,3.4,5.9l9.1,8.2c5.5,4.9,7.2,12.8,4.2,19.6l-5,11.2c-0.9,2.1-1.2,4.5-0.7,6.8
		l2.5,12c1.5,7.2-1.7,14.6-8.1,18.3l-10.6,6.1c-2,1.2-3.6,2.9-4.6,5.1l-5,11.2c-3,6.7-10,10.8-17.3,10l0,0l-12.2-1.3
		c-2.3-0.2-4.7,0.3-6.7,1.4l-10.6,6.1C107.4,164.3,104.4,165.1,101.4,165.1z M75.4,14.5c-4.4,0-8.3,2.6-10.1,6.5l-5,11.2
		c-1.4,3.3-3.9,6-7,7.8l-10.6,6.1c-4.1,2.4-6.3,7.2-5.3,11.9L40,70c0.8,3.5,0.4,7.2-1.1,10.5l-5,11.2c-2,4.4-0.9,9.5,2.7,12.7
		l9.1,8.2c2.7,2.4,4.5,5.6,5.3,9.1l2.6,12c1,4.7,4.9,8.2,9.6,8.7l12.2,1.3c3.6,0.4,7,1.9,9.6,4.3l9.1,8.2c3.5,3.2,8.8,3.8,12.9,1.4
		l10.6-6.1c3.1-1.8,6.7-2.6,10.3-2.2l12.2,1.3c4.8,0.5,9.3-2.1,11.2-6.5l5-11.2c1.4-3.3,3.9-6,7-7.8l10.6-6.1
		c4.1-2.4,6.3-7.2,5.3-11.9l-2.5-12c-0.8-3.5-0.4-7.2,1.1-10.5l5-11.2c2-4.4,0.9-9.5-2.7-12.7l-9.1-8.2c-2.7-2.4-4.5-5.6-5.3-9.1
		l-2.5-12c-1-4.7-4.9-8.2-9.6-8.7l-12.2-1.3c-3.6-0.4-7-1.9-9.6-4.3l-9.1-8.2c-3.5-3.2-8.8-3.8-12.9-1.4L99,13.7
		c-3.1,1.8-6.7,2.6-10.3,2.2l-12.2-1.3C76.2,14.5,75.8,14.5,75.4,14.5z"/>
</g>
<g>
	<g>
		<path class="st1" d="M27.8,119.6c-3,0-5.5-2.2-5.9-5.1l-2.4-15.8L1.2,74.9c-2-2.6-1.5-6.4,1.1-8.4c0.8-0.6,1.7-1,2.7-1.2l13-2
			c2.3-0.3,4.6,0.7,5.9,2.6l3.6,5.4l1.9-6.3c0.7-2.2,2.6-3.8,4.9-4.1L47.1,59c3.3-0.5,6.3,1.7,6.8,5c0.2,1,0.1,2-0.3,3L43.4,95.1
			l2.3,15.8c0.5,3.3-1.7,6.3-5,6.8l-12.1,1.8C28.4,119.6,28.1,119.6,27.8,119.6z M28.7,91.1l1.2,1.6c0.6,0.8,1,1.8,1.2,2.8l1.7,11.4
			H33l-1.7-11.4c-0.1-1-0.1-2,0.3-2.9l0.7-1.9C31.2,91.1,29.9,91.3,28.7,91.1z"/>
		<path class="st1" d="M56.1,115.4c-3,0-5.5-2.2-5.9-5.1l-6.8-44.7c-0.5-3.3,1.7-6.3,5-6.8l11.3-1.7c3.3-0.5,6.3,1.7,6.8,5l0.8,5.2
			c1.2-0.4,2.4-0.7,3.6-0.9c6.3-1,10.5,1.1,12.9,3.1c3.4,2.7,5.5,6.8,6.3,12.3l3.3,22c0.5,3.3-1.7,6.3-5,6.8l-11.3,1.7
			c-1.6,0.2-3.2-0.2-4.5-1.1l-0.3-0.3c-0.9,1.5-2.5,2.5-4.2,2.7L57,115.3C56.7,115.4,56.4,115.4,56.1,115.4z M67.3,86.5L67.3,86.5z
			 M58,81.6l0.6,3.9c0.1-0.4,0.1-0.8,0.3-1.1c0.1-0.5,0.3-0.9,0.5-1.3C58.8,82.7,58.4,82.2,58,81.6L58,81.6z M76.1,78.6
			c0.6,0.5,1.1,1.1,1.5,1.8c-0.2-0.6-0.6-1.1-1.1-1.5C76.4,78.8,76.3,78.7,76.1,78.6L76.1,78.6z"/>
		<path class="st1" d="M106.2,108.6c-4.6,0.1-9.2-1.3-12.9-4.1c-4.5-3.5-7.3-8.8-8.3-15.7c-0.5-3.3-0.5-6.6,0.1-9.9
			c0.6-3,1.7-5.9,3.5-8.4c1.7-2.5,4-4.6,6.7-6.1c2.7-1.5,5.7-2.6,8.9-3c3.1-0.5,6.2-0.4,9.2,0.2c2.9,0.6,5.5,1.9,7.8,3.7
			c2.3,1.8,4.1,4.1,5.4,6.8c1.3,2.7,2.2,5.5,2.6,8.5l0.5,3.6c0.1,0.7,0.1,1.4,0,2.1c0.2,0.7,0.4,1.4,0.4,2.1
			c-0.1,5.6-2,10.2-5.5,13.6c-3.3,3.2-7.8,5.3-13.5,6.1C109.4,108.4,107.8,108.6,106.2,108.6z"/>
		<path class="st1" d="M131.6,104c-3,0-5.5-2.2-5.9-5.1L119,54.2c-0.5-3.3,1.7-6.3,5-6.8l11.3-1.7c3.3-0.5,6.3,1.7,6.8,5l6.7,44.7
			c0.5,3.3-1.7,6.3-5,6.8l-11.3,1.7C132.2,104,131.9,104,131.6,104z"/>
		<path class="st1" d="M151.7,113.4c-3,0-5.5-2.2-5.9-5.1L139,63.2c-0.5-3.3,1.7-6.3,5-6.8l11-1.7c0.8-0.1,1.6-0.1,2.3,0.1
			c2.2-1.3,4.6-2.2,7.1-2.5c5.6-1,11.3,0.7,15.4,4.6c3.7,3.5,6.1,8.7,7.1,15.4c0.5,3.1,0.6,6.3,0.2,9.4c-0.3,2.9-1.3,5.7-2.7,8.2
			c-1.4,2.5-3.3,4.6-5.7,6.1c-2.4,1.6-5.1,2.6-7.9,3c-0.9,0.1-1.8,0.2-2.7,0.2l0.8,5.5c0.5,3.3-1.7,6.3-5,6.8l-11.3,1.7
			C152.3,113.4,152,113.4,151.7,113.4z M154.1,83.5l0.8,5.4c0.2-0.8,0.6-1.5,1.1-2.1C155.3,85.8,154.6,84.7,154.1,83.5L154.1,83.5z
			 M165.4,79.4L165.4,79.4z M162.9,73.4L162.9,73.4z M164.5,73.2L164.5,73.2z M151.8,68.2l0.6,4.2c0.1-1,0.3-2.1,0.6-3.1
			C152.6,69,152.2,68.6,151.8,68.2L151.8,68.2z"/>
		<path class="st1" d="M190.4,95.1c-3,0-5.5-2.2-5.9-5.1l-1.6-10.8c-0.1-0.7-0.1-1.5,0.1-2.2c-0.1-0.4-0.2-0.7-0.3-1.1l-5.7-30.2
			c-0.6-3.3,1.6-6.4,4.8-7c0.1,0,0.1,0,0.2,0l12.3-1.9c3.3-0.5,6.3,1.8,6.8,5c0,0.1,0,0.2,0,0.2l3.5,30.5c0,0.4,0,0.8,0,1.1
			c0.4,0.6,0.6,1.4,0.7,2.1l1.6,10.8c0.5,3.3-1.7,6.3-5,6.8l-10.6,1.6C191.1,95.1,190.7,95.2,190.4,95.1z M189.9,49.6v0.2V49.6
			L189.9,49.6z"/>
	</g>
	<g>
		<path class="st2" d="M27.7,82.1L33,64.9c0.2-0.6,0.7-1.1,1.4-1.2l8.7-1.3c1.3-0.2,2.3,1.1,1.9,2.3l-9.7,26.8l2.4,15.6
			c0.1,0.9-0.5,1.8-1.5,2l-8.7,1.3c-0.9,0.1-1.8-0.5-2-1.5l-2.4-15.6L5.8,70.6c-0.8-1-0.2-2.6,1.1-2.8l9-1.4
			c0.7-0.1,1.3,0.2,1.7,0.7L27.7,82.1z"/>
		<path class="st2" d="M61,75.3c0.9-1.7,2.2-3.1,3.8-4.1c1.6-1,3.3-1.6,5.1-1.9c3.4-0.5,6.2,0.1,8.3,1.8c2.2,1.7,3.5,4.5,4.1,8.5
			l3.1,20.3c0.1,0.9-0.5,1.8-1.5,2l-7.9,1.2c-0.9,0.1-1.8-0.5-2-1.5l-2.7-18.4c-0.3-1.7-0.8-2.8-1.5-3.3c-0.9-0.5-1.9-0.7-2.9-0.5
			c-1.4,0.2-2.7,0.9-3.5,2c-0.4,0.5-0.7,1.1-0.9,1.7c-0.2,0.8-0.2,1.7,0,2.6l2.6,17.3c0.1,0.9-0.5,1.8-1.5,2l-7.9,1.2
			c-0.9,0.1-1.8-0.5-2-1.5l-6.3-41.2c-0.1-0.9,0.5-1.8,1.5-2l7.9-1.2c0.9-0.1,1.8,0.5,2,1.5L61,75.3z"/>
		<path class="st2" d="M100.2,85.4c0.6,2.3,1.4,4,2.4,4.9c1.2,0.9,2.8,1.3,4.3,0.9c2.4-0.4,3.9-1.5,4.5-3.3c0.2-0.6,0.6-1,1.2-1.1
			l7.7-1.2c1-0.2,1.9,0.7,1.7,1.7c-0.3,2.8-1.6,5.4-3.6,7.5c-2.4,2.3-5.8,3.8-10.2,4.5c-5.5,0.8-9.9,0-13.1-2.5
			c-3.2-2.5-5.3-6.4-6.1-11.8c-0.4-2.6-0.4-5.2,0-7.8c0.4-2.2,1.2-4.3,2.5-6.1c1.2-1.8,2.9-3.2,4.7-4.3c2.1-1.2,4.4-1.9,6.8-2.2
			c2.3-0.4,4.7-0.4,7,0.1c2,0.4,3.8,1.3,5.4,2.6c1.6,1.3,2.9,2.9,3.8,4.8c1,2.1,1.7,4.4,2,6.7l0.3,2.1c0.1,0.8-0.4,1.6-1.3,1.7
			L100.2,85.4z M100.2,74.5c-0.8,1.3-1.2,2.8-1,4.4l11.2-1.7c-0.2-1.6-0.9-3-2.1-4.1c-1.2-0.8-2.7-1.1-4.1-0.7
			C102.6,72.5,101.2,73.3,100.2,74.5L100.2,74.5z"/>
		<path class="st2" d="M139.3,93.5l-7.9,1.2c-0.9,0.1-1.8-0.5-2-1.5L123.2,52c-0.1-0.9,0.5-1.8,1.5-2l7.9-1.2c0.9-0.1,1.8,0.5,2,1.5
			l6.2,41.3C140.9,92.5,140.2,93.4,139.3,93.5z"/>
		<path class="st2" d="M154.4,61.4c1.7-3.4,5.1-5.7,8.9-6.1c3.7-0.8,7.6,0.4,10.4,3c2.7,2.6,4.5,6.6,5.3,12c0.4,2.6,0.5,5.2,0.2,7.8
			c-0.2,2.1-0.9,4.2-1.9,6.1c-0.9,1.7-2.2,3.1-3.8,4.1c-1.7,1.1-3.5,1.7-5.5,2c-3.3,0.7-6.7-0.3-9.2-2.6l2,13.4
			c0.1,0.9-0.5,1.8-1.5,2l-7.9,1.2c-0.9,0.1-1.8-0.5-2-1.5L143.1,61c-0.1-0.9,0.5-1.8,1.5-2l7.6-1.1c0.9-0.1,1.8,0.5,2,1.5
			L154.4,61.4z M157.6,78.1c0.3,0.8,0.7,1.6,1.3,2.2c0.6,0.6,1.3,1,2.1,1.2c0.7,0.2,1.5,0.2,2.3,0.1c1.6-0.2,3-1.1,3.8-2.6
			c0.8-1.5,0.9-3.7,0.5-6.6c-0.4-3-1.2-5-2.4-6.1c-1.1-1.2-2.8-1.7-4.4-1.4c-0.8,0.1-1.5,0.4-2.2,0.8c-0.7,0.5-1.3,1.1-1.6,1.9
			c-0.7,1.9-0.9,3.9-0.5,5.9l0.1,0.9C156.9,75.7,157.2,77,157.6,78.1L157.6,78.1z"/>
		<path class="st2" d="M193.3,41.5l3.1,27.1c0.1,0.9-0.5,1.8-1.5,1.9l-6.8,1c-0.9,0.1-1.8-0.5-2-1.4l-5.1-26.8c-0.2-1,0.5-1.9,1.4-2
			l8.8-1.3C192.3,39.8,193.2,40.5,193.3,41.5z M197.6,75.4l1.1,7.4c0.1,0.9-0.5,1.8-1.5,2l-7.1,1.1c-0.9,0.1-1.8-0.5-2-1.5l-1.1-7.4
			c-0.1-0.9,0.5-1.8,1.5-2l7.1-1.1C196.6,73.8,197.5,74.5,197.6,75.4z"/>
	</g>
</g>
</svg>
