<svg xmlns="http://www.w3.org/2000/svg" viewBox="0 0 206.97 165.06">
  <title>yhelp</title>
  <g>
    <path d="M307.35,312.61l-12.21-1.28a14,14,0,0,0-8.48,1.8L276,319.27a14,14,0,0,1-16.4-1.72l-9.13-8.22a14,14,0,0,0-7.92-3.53l-12.21-1.28a14,14,0,0,1-12.26-11l-2.55-12a14,14,0,0,0-4.34-7.51l-9.13-8.22a14,14,0,0,1-3.43-16.13l5-11.22a14,14,0,0,0,.91-8.62l-2.55-12a14,14,0,0,1,6.71-15.07l10.63-6.14a14,14,0,0,0,5.8-6.44l5-11.22a14,14,0,0,1,14.28-8.25l12.21,1.28a14,14,0,0,0,8.48-1.8L275.76,164a14,14,0,0,1,16.4,1.72l9.13,8.22a14,14,0,0,0,7.92,3.53l12.21,1.28a14,14,0,0,1,12.26,11l2.55,12a14,14,0,0,0,4.34,7.51l9.13,8.22a14,14,0,0,1,3.43,16.13l-5,11.22a14,14,0,0,0-.91,8.62l2.55,12a14,14,0,0,1-6.71,15.07l-10.63,6.14a14,14,0,0,0-5.8,6.44l-5,11.22A14,14,0,0,1,307.35,312.61Z" transform="translate(-167.57 -159.09)" fill="#f15a24"/>
    <path d="M269,324.16a17,17,0,0,1-11.39-4.38l-9.13-8.22a11,11,0,0,0-6.23-2.77L230,307.5a17,17,0,0,1-14.88-13.4l-2.55-12a11,11,0,0,0-3.41-5.9L200.08,268a17,17,0,0,1-4.16-19.58l5-11.22a11,11,0,0,0,.71-6.78l-2.55-12a17,17,0,0,1,8.14-18.29L217.85,194a11,11,0,0,0,4.56-5.07l5-11.22a17,17,0,0,1,17.34-10L257,168.94a11,11,0,0,0,6.67-1.42l10.63-6.14a17,17,0,0,1,19.91,2.09l9.13,8.22a11,11,0,0,0,6.23,2.77l12.21,1.28a17,17,0,0,1,14.88,13.4l2.55,12a11,11,0,0,0,3.41,5.9l9.13,8.22a17,17,0,0,1,4.16,19.58l-5,11.22a11,11,0,0,0-.71,6.78l2.55,12a17,17,0,0,1-8.14,18.29l-10.63,6.14a11,11,0,0,0-4.56,5.07l-5,11.22a17,17,0,0,1-17.34,10h0l-12.21-1.28a11,11,0,0,0-6.67,1.42l-10.63,6.14A17,17,0,0,1,269,324.16ZM242.95,173.56a11,11,0,0,0-10.06,6.54l-5,11.22a16.93,16.93,0,0,1-7,7.82l-10.63,6.14a11,11,0,0,0-5.27,11.85l2.55,12a16.93,16.93,0,0,1-1.1,10.47l-5,11.22a11,11,0,0,0,2.7,12.68l9.13,8.22a16.93,16.93,0,0,1,5.26,9.11l2.55,12a11,11,0,0,0,9.64,8.68l12.21,1.28a16.92,16.92,0,0,1,9.62,4.28l9.13,8.22a11,11,0,0,0,12.9,1.36l10.63-6.14a16.92,16.92,0,0,1,10.29-2.19l12.21,1.28a11,11,0,0,0,11.23-6.48l5-11.22a16.93,16.93,0,0,1,7-7.82L341.56,278a11,11,0,0,0,5.27-11.85l-2.55-12a16.93,16.93,0,0,1,1.1-10.47l5-11.22a11,11,0,0,0-2.7-12.68l-9.13-8.22a16.92,16.92,0,0,1-5.26-9.12l-2.55-12a11,11,0,0,0-9.64-8.68l-12.21-1.28a16.92,16.92,0,0,1-9.62-4.28l-9.13-8.22a11,11,0,0,0-12.9-1.36l-10.63,6.14a16.93,16.93,0,0,1-10.29,2.19l-12.21-1.28A11.2,11.2,0,0,0,242.95,173.56Z" transform="translate(-167.57 -159.09)" fill="#c1272d"/>
  </g>
  <g>
    <g>
      <path d="M195.33,278.74a6,6,0,0,1-5.93-5.1L187,257.82,168.8,234a6,6,0,0,1,3.87-9.57l13-2a6,6,0,0,1,5.88,2.59l3.63,5.4,1.92-6.27A6,6,0,0,1,202,220l12.64-1.91a6,6,0,0,1,6.54,8L211,254.2,213.34,270a6,6,0,0,1-5,6.83l-12.08,1.82A5.94,5.94,0,0,1,195.33,278.74Zm0.92-28.59,1.24,1.62a6,6,0,0,1,1.16,2.75l1.72,11.4,0.21,0-1.72-11.4a6,6,0,0,1,.29-2.94l0.69-1.91A6,6,0,0,1,196.25,250.15Z" transform="translate(-167.57 -159.09)" fill="#c1272d"/>
      <path d="M223.7,274.47a6,6,0,0,1-5.93-5.1L211,224.69a6,6,0,0,1,5-6.83l11.32-1.71a6,6,0,0,1,6.83,5l0.79,5.23a20.19,20.19,0,0,1,3.65-.9c6.33-1,10.53,1.14,12.94,3.06,3.37,2.69,5.49,6.81,6.32,12.26l3.31,22a6,6,0,0,1-5,6.83l-11.33,1.71a6,6,0,0,1-4.46-1.1l-0.32-.26a6,6,0,0,1-4.17,2.71l-11.33,1.71A5.94,5.94,0,0,1,223.7,274.47Zm11.17-28.91h0Zm-9.29-4.86,0.59,3.93a9.23,9.23,0,0,1,.26-1.14,11.44,11.44,0,0,1,.48-1.34A6,6,0,0,1,225.58,240.71Zm18.13-3a8.54,8.54,0,0,1,1.49,1.81,4.09,4.09,0,0,0-1.09-1.54A2.68,2.68,0,0,0,243.71,237.69Z" transform="translate(-167.57 -159.09)" fill="#c1272d"/>
      <path d="M273.8,267.66a20.47,20.47,0,0,1-12.87-4.06c-4.48-3.46-7.29-8.76-8.34-15.73a29.15,29.15,0,0,1,.07-9.88,22,22,0,0,1,3.46-8.42,20.24,20.24,0,0,1,6.7-6.06,25.61,25.61,0,0,1,8.86-3,24.76,24.76,0,0,1,9.23.21,19.41,19.41,0,0,1,7.84,3.73,20.07,20.07,0,0,1,5.41,6.77,28.23,28.23,0,0,1,2.6,8.47l0.54,3.57a6,6,0,0,1-.05,2.1,6,6,0,0,1,.35,2.15c-0.11,5.59-2,10.18-5.5,13.63-3.29,3.21-7.83,5.27-13.5,6.12A32.32,32.32,0,0,1,273.8,267.66Z" transform="translate(-167.57 -159.09)" fill="#c1272d"/>
      <path d="M299.21,263.08a6,6,0,0,1-5.93-5.11l-6.74-44.68a6,6,0,0,1,5-6.83l11.33-1.71a6,6,0,0,1,6.83,5l6.74,44.68a6,6,0,0,1-5,6.83L300.11,263A6.09,6.09,0,0,1,299.21,263.08Z" transform="translate(-167.57 -159.09)" fill="#c1272d"/>
      <path d="M319.25,272.47a6,6,0,0,1-5.93-5.1l-6.8-45.05a6,6,0,0,1,5-6.83l11-1.66a6,6,0,0,1,2.31.1,18.63,18.63,0,0,1,7.12-2.54A17.68,17.68,0,0,1,347.4,216c3.71,3.54,6.11,8.74,7.12,15.44a33.74,33.74,0,0,1,.19,9.44,22.41,22.41,0,0,1-2.68,8.25,18.18,18.18,0,0,1-5.7,6.13,19.33,19.33,0,0,1-7.92,3,20.07,20.07,0,0,1-2.73.23l0.82,5.45a6,6,0,0,1-5,6.83l-11.33,1.71A6,6,0,0,1,319.25,272.47Zm2.47-29.84,0.81,5.39a6,6,0,0,1,1.08-2.09A13,13,0,0,1,321.73,242.64ZM333,238.47h0Zm-2.54-6h0Zm1.57-.21h0Zm-12.64-5L320,231.5a13.27,13.27,0,0,1,.64-3.06A6,6,0,0,1,319.41,227.28Z" transform="translate(-167.57 -159.09)" fill="#c1272d"/>
      <path d="M358,254.22a6,6,0,0,1-5.93-5.1l-1.63-10.83a6,6,0,0,1,.08-2.22,6,6,0,0,1-.32-1.1l-5.7-30.18a6,6,0,0,1,5-7l12.33-1.86a6,6,0,0,1,6.86,5.26l3.45,30.52a6,6,0,0,1,0,1.15,6,6,0,0,1,.73,2.09l1.63,10.83a6,6,0,0,1-5,6.83l-10.57,1.6A6,6,0,0,1,358,254.22Zm-0.56-45.54,0,0.16,0-.16h0Z" transform="translate(-167.57 -159.09)" fill="#c1272d"/>
    </g>
    <g>
      <path d="M195.24,241.23l5.62-18.32L213.49,221l-10.7,29.58,2.61,17.33-12.08,1.82-2.61-17.33-19.14-25.08,13-2Z" transform="translate(-167.57 -159.09)" fill="#fff"/>
      <path d="M228.6,234.42a11.92,11.92,0,0,1,3.83-4.1,13.09,13.09,0,0,1,5.13-1.86q5.07-.76,8.31,1.82t4.13,8.46l3.31,22L242,262.42l-3-20.15q-0.39-2.56-1.49-3.33a3.88,3.88,0,0,0-2.86-.5,5.27,5.27,0,0,0-3.54,2,5.49,5.49,0,0,0-.86,1.73,6.19,6.19,0,0,0,0,2.56l2.87,19-11.33,1.71L215,220.8l11.33-1.71Z" transform="translate(-167.57 -159.09)" fill="#fff"/>
      <path d="M267.73,244.45q0.85,3.52,2.37,4.86a5,5,0,0,0,4.27.92q4.25-.64,4.67-4.22l10.57-1.6a13,13,0,0,1-3.69,9.45q-3.57,3.48-10.2,4.48-8.26,1.25-13.11-2.5T256.53,244a23.09,23.09,0,0,1,0-7.84,15.94,15.94,0,0,1,2.5-6.14,14.22,14.22,0,0,1,4.73-4.27,19.55,19.55,0,0,1,6.8-2.24,18.73,18.73,0,0,1,7,.13,13.41,13.41,0,0,1,5.44,2.57,14.06,14.06,0,0,1,3.79,4.77,22.16,22.16,0,0,1,2,6.67l0.54,3.57Zm0-10.82a7,7,0,0,0-1,4.38l11.2-1.69a6.5,6.5,0,0,0-2.06-4.1,5.3,5.3,0,0,0-4.11-.72A5.56,5.56,0,0,0,267.77,233.63Z" transform="translate(-167.57 -159.09)" fill="#fff"/>
      <path d="M308.54,252.37l-11.33,1.71-6.74-44.68,11.33-1.71Z" transform="translate(-167.57 -159.09)" fill="#fff"/>
      <path d="M322,220.45a11.33,11.33,0,0,1,8.87-6.14,11.69,11.69,0,0,1,10.37,3q4.11,3.92,5.33,12a27.65,27.65,0,0,1,.18,7.75,16.38,16.38,0,0,1-1.93,6.05,12.18,12.18,0,0,1-3.83,4.13,13.32,13.32,0,0,1-5.48,2,10.6,10.6,0,0,1-9.22-2.58l2.27,15.08-11.33,1.71-6.8-45.05,11-1.66Zm3.21,16.79a6.7,6.7,0,0,0,1.33,2.23,4,4,0,0,0,2.07,1.19,6.39,6.39,0,0,0,2.28.07,4.88,4.88,0,0,0,3.8-2.59q1.17-2.19.5-6.64t-2.4-6.13a4.79,4.79,0,0,0-4.36-1.36,5.92,5.92,0,0,0-2.19.78,4.34,4.34,0,0,0-1.63,1.91,10.09,10.09,0,0,0-.46,5.89l0.14,0.94A17.39,17.39,0,0,0,325.23,237.25Z" transform="translate(-167.57 -159.09)" fill="#fff"/>
      <path d="M360.68,198.81l3.45,30.52-10.07,1.52-5.7-30.18Zm4.23,34,1.63,10.83L356,245.22l-1.63-10.83Z" transform="translate(-167.57 -159.09)" fill="#fff"/>
    </g>
  </g>
</svg>
