<svg xmlns="http://www.w3.org/2000/svg" viewBox="0 0 310.48 150">
  <title>yipe</title>
  <g>
    <path d="M320.46,294c-9,0-17.46-8.52-17.46-17.53v-9.75a8.24,8.24,0,0,1-4.34,1.28h-20.3c-8.92,0-17.36-8.52-17.36-17.52v-24l-12.34,31.58a150.5,150.5,0,0,1-6.07,13.83,45.63,45.63,0,0,1-8.1,11.3,31.63,31.63,0,0,1-11.67,7.37,40.71,40.71,0,0,1-13.45,2.08,62.65,62.65,0,0,1-12.16-1.17c-1.59-.31-3.14-0.65-4.59-1a16.15,16.15,0,0,1-11.9-18.91l2.56-12.66a16.19,16.19,0,0,1,17.83-12.85L178,194.76a15.16,15.16,0,0,1,1.16-14.9c2.82-4.36,7.77-6.86,13.6-6.86h20.48a16.16,16.16,0,0,1,13.49,7.19A16.16,16.16,0,0,1,240.16,173h19.73c0.39,0,.74,0,1.07,0h0v-9.78c0-8.37,7.79-15.17,17.36-15.17h20.3c9,0,15.34,6.24,15.34,15.17v9.72c0,0.26,0,.56.05,0.86a23.64,23.64,0,0,1,6.4-.75h19.23a17.87,17.87,0,0,1,6.76.94,36.73,36.73,0,0,1,16.72-4c12.31,0,22.24,4.52,29.53,13.43a38.18,38.18,0,0,1,4.07,6.08,41.94,41.94,0,0,1,4.62-5.78,43.51,43.51,0,0,1,15.87-10.48,54.47,54.47,0,0,1,19.66-3.42,53.37,53.37,0,0,1,19.35,3.36,41.76,41.76,0,0,1,15.44,10.24c3.76,4,6.59,9.06,8.9,15.95,2.11,6.26,2.39,13.07,2.39,18.89v3a16.35,16.35,0,0,1-2,8.67,15.94,15.94,0,0,1,.46,10.59c-2.76,8.5-7.48,15.17-14,19.83-7.9,5.61-18,8.45-30.14,8.45-15.76,0-28-4.53-36.5-13.47a41.91,41.91,0,0,1-5-6.39,41.4,41.4,0,0,1-3.56,5.41,36.13,36.13,0,0,1-13.6,10.84,42.27,42.27,0,0,1-17.16,3.48,47.24,47.24,0,0,1-5.49-.33v8.13c0,8.43-5.83,17.53-15.24,17.53H320.46Z" transform="translate(-174.52 -146)" fill="#f7931e"/>
    <path d="M298.83,150c7.91,0,13.17,5.36,13.17,13.17v9.72c0,1.15.36,2.77,0.1,3.86,2.26-1.42,5.47-1.75,8.36-1.75h19.23c2.45,0,4.78.08,6.82,1.17a34.85,34.85,0,0,1,16.67-4.23c11.61,0,21,4.19,28,12.7a37.1,37.1,0,0,1,5.42,9,41,41,0,0,1,6.26-8.58,41.54,41.54,0,0,1,15.15-10,52.49,52.49,0,0,1,18.94-3.29A51.38,51.38,0,0,1,455.54,175a39.78,39.78,0,0,1,14.71,9.75c4,4.22,6.49,9.34,8.46,15.21,1.85,5.5,2.29,11.64,2.29,18.26v3c0,3.1-.49,6-2.28,8.45a14.25,14.25,0,0,1,.81,10.2c-2.6,8-7,14.33-13.3,18.82-7.56,5.36-17.27,8.08-29,8.08-15.21,0-27-4.32-35-12.85a40.26,40.26,0,0,1-6.52-9.24,41.51,41.51,0,0,1-5,8.4,34.14,34.14,0,0,1-12.85,10.25,40.23,40.23,0,0,1-16.33,3.31,54.31,54.31,0,0,1-7.49-.59v10.39c0,7.88-5.52,15.53-13.24,15.53H320.46c-7.84,0-15.46-7.65-15.46-15.53V262.88c-2,1.34-3.68,3.12-6.34,3.12h-20.3c-7.78,0-15.36-7.65-15.36-15.52V215.88L246.86,257.2c-2.17,5.38-4,10-6,13.76a43.86,43.86,0,0,1-7.73,10.81,29.5,29.5,0,0,1-10.93,6.91,38.64,38.64,0,0,1-12.79,2,60.58,60.58,0,0,1-11.78-1.13c-1.59-.31-3.1-0.65-4.5-1A14.15,14.15,0,0,1,182.68,272l2.56-12.66a14.19,14.19,0,0,1,16.32-11.16l0.15,0a15.33,15.33,0,0,0,2.21.24c0.07-.15.14-0.32,0.21-0.52l-24.36-54a13.13,13.13,0,0,1,1-13c2.61-4,7.06-5.95,11.92-5.95h20.48a14.13,14.13,0,0,1,13.49,9.74A14.24,14.24,0,0,1,240.16,175h19.73c0.84,0,1.5-.09,2.17-0.09a5.09,5.09,0,0,1,1.55.23c-0.07-.57-0.61-1.66-0.61-2.24v-9.72c0-7.81,7.44-13.17,15.36-13.17H299m-0.34-4h-20.3c-10.67,0-19.36,7.7-19.36,17.17V171H240.16a18.17,18.17,0,0,0-13.48,5.95A18.18,18.18,0,0,0,213.19,171H192.71c-6.52,0-12.09,2.83-15.28,7.78a17.1,17.1,0,0,0-1.3,16.8L198,244a18.25,18.25,0,0,0-16.66,14.54l-2.56,12.65a18.15,18.15,0,0,0,13.37,21.25c1.49,0.37,3.07.72,4.7,1a64.64,64.64,0,0,0,12.54,1.2,42.7,42.7,0,0,0,14.11-2.19,33.6,33.6,0,0,0,12.41-7.83,47.57,47.57,0,0,0,8.46-11.79,151.73,151.73,0,0,0,6.16-14l0-.12L259,237.11v13.37c0,10,9.41,19.52,19.36,19.52h20.3a9.65,9.65,0,0,0,2.34-.28v6.75c0,10,9.46,19.53,19.46,19.53h20.31c9.5,0,17.24-8.76,17.24-19.53v-5.93c1.15,0.09,2.27.13,3.49,0.13a44.29,44.29,0,0,0,18-3.67,38.1,38.1,0,0,0,14.35-11.42q1.09-1.4,2.09-2.94a43.51,43.51,0,0,0,3.39,4.06c8.85,9.36,21.61,14.1,38,14.1,12.52,0,23-3,31.29-8.82,6.92-4.92,11.9-11.93,14.79-20.85a17.74,17.74,0,0,0-.18-11,19.23,19.23,0,0,0,1.83-8.85v-3c0-6-.3-13-2.5-19.53-2.41-7.17-5.37-12.46-9.34-16.68A43.75,43.75,0,0,0,457,171.26a55.35,55.35,0,0,0-20.07-3.49,56.45,56.45,0,0,0-20.38,3.56,45.5,45.5,0,0,0-16.59,11,43,43,0,0,0-3,3.51,40.39,40.39,0,0,0-2.69-3.69c-7.68-9.4-18.14-14.17-31.07-14.17a38.65,38.65,0,0,0-16.85,3.83,21.69,21.69,0,0,0-6.63-.77H320.46a30.41,30.41,0,0,0-4.46.3v-8.13c0-9.95-7.29-17.17-17.34-17.17h0Z" transform="translate(-174.52 -146)"/>
  </g>
  <path d="M211.41,285.66a55.76,55.76,0,0,1-10.82-1c-1.52-.3-3-0.61-4.26-0.94A9.16,9.16,0,0,1,189.58,273l2.56-12.66a9.22,9.22,0,0,1,9-7.36,9.31,9.31,0,0,1,1.57.13l0.13,0a20.18,20.18,0,0,0,3.6.32,4.76,4.76,0,0,0,2.65-.67h0s0.89-.7,2-3.88l0.42-1.19-25.19-55.79A9.12,9.12,0,0,1,194.71,179h20.48a9.12,9.12,0,0,1,8.74,6.32l5,15.51,4.38-15.22a9.2,9.2,0,0,1,8.83-6.62h19.73a9.13,9.13,0,0,1,8.52,12.55l-25.69,63.78a140.76,140.76,0,0,1-6.05,13.27,39.16,39.16,0,0,1-6.94,9.59,24.76,24.76,0,0,1-9.15,5.77A33.9,33.9,0,0,1,211.41,285.66ZM300.66,260a9.62,9.62,0,0,0,9.34-9.52V188.1a9.18,9.18,0,0,0-4-7.6,9.18,9.18,0,0,0,4-7.6v-9.72a9.32,9.32,0,0,0-9.34-9.17h-20.3a9.33,9.33,0,0,0-9.36,9.17v9.72a9.18,9.18,0,0,0,4,7.6,9.18,9.18,0,0,0-4,7.6v62.38a9.64,9.64,0,0,0,9.36,9.52h20.3Zm42.1,26a9.54,9.54,0,0,0,9.24-9.53V259.26c3,1.6,7.37,2.41,12,2.41a32.89,32.89,0,0,0,13.77-2.86,29.19,29.19,0,0,0,11-8.77,41.18,41.18,0,0,0,6.82-13.94,64.62,64.62,0,0,0,2.34-18c0-13.19-2.9-23.41-8.63-30.42-6-7.31-14.08-11-24.11-11a28.94,28.94,0,0,0-16.9,5,9.06,9.06,0,0,0-6.58-2.67H322.46c-5.07,0-9.46,3.9-9.46,9v88.51a9.73,9.73,0,0,0,9.46,9.53h20.31Zm15.08-75.18c0.32,0.47,1.38,2.46,1.38,8.46s-1,8-1.42,8.58a2.5,2.5,0,0,1-2.44,1.16c-1.52,0-1.85-.5-2-0.78-0.39-.65-1.34-2.73-1.34-8v-1.87a28.67,28.67,0,0,1,.43-5.13,7.21,7.21,0,0,1,1-2.55,2,2,0,0,1,2-1A2.55,2.55,0,0,1,357.85,210.82Zm107.62,43.83A31.21,31.21,0,0,0,477,238.36a9.13,9.13,0,0,0-2.28-9.35,9.18,9.18,0,0,0,4.25-7.75v-3a52.28,52.28,0,0,0-2.53-16.67,36,36,0,0,0-7.86-13.37,34.83,34.83,0,0,0-12.88-8.53,46.43,46.43,0,0,0-16.82-2.89,47.53,47.53,0,0,0-17.14,2.95,36.54,36.54,0,0,0-13.34,8.78,37.8,37.8,0,0,0-8.35,14,54.41,54.41,0,0,0-2.75,17.78c0,12.7,3.55,22.89,10.54,30.3s17.66,11.28,31.44,11.28C450,261.81,458.77,259.4,465.47,254.65Zm-23-24.65c-0.12,1-.23.51-0.33,0.69s-0.69,1.31-3.23,1.31a4.3,4.3,0,0,1-3.35-1.17s-0.17.18-.37-0.82h7.29Zm-4.12-23.75a9,9,0,0,1,1,0,7.89,7.89,0,0,1,.91,0h-1.87Z" transform="translate(-174.52 -146)" fill="#c1272d"/>
  <path d="M226.23,215.95l8.91-31a4.19,4.19,0,0,1,4-3h19.73a4.19,4.19,0,0,1,3.88,5.75l-25.69,63.8a135.3,135.3,0,0,1-5.83,12.8,34.09,34.09,0,0,1-6,8.37,19.71,19.71,0,0,1-7.3,4.62,28.85,28.85,0,0,1-9.51,1.41,50.62,50.62,0,0,1-9.85-.94q-2.19-.43-4-0.89a4.17,4.17,0,0,1-3.06-4.89L194,259.29a4.19,4.19,0,0,1,4.87-3.28h0a25.12,25.12,0,0,0,4.49.4,9.66,9.66,0,0,0,5.36-1.47q2.27-1.48,4-6.43l1.07-3.08-26-57.61a4.19,4.19,0,0,1,3.82-5.91h20.49a4.19,4.19,0,0,1,4,2.9Zm75.62-54.78v9.72a4.19,4.19,0,0,1-4.19,4.19h-20.3a4.19,4.19,0,0,1-4.19-4.19v-9.72a4.19,4.19,0,0,1,4.19-4.19h20.3A4.19,4.19,0,0,1,301.85,161.17Zm0,24.93v62.38a4.19,4.19,0,0,1-4.19,4.19h-20.3a4.19,4.19,0,0,1-4.19-4.19V186.1a4.19,4.19,0,0,1,4.19-4.19h20.3A4.19,4.19,0,0,1,301.85,186.1Zm41,2.65q7-9.12,19.3-9.12,12.73,0,20.23,9.18t7.5,27.27a59.46,59.46,0,0,1-2.14,16.62,36.08,36.08,0,0,1-6,12.26,24.17,24.17,0,0,1-9.11,7.3A27.92,27.92,0,0,1,361,254.67a22.33,22.33,0,0,1-10.32-2.14A19.39,19.39,0,0,1,344,247v27.44a4.19,4.19,0,0,1-4.19,4.19H319.46a4.19,4.19,0,0,1-4.19-4.19V186a4.19,4.19,0,0,1,4.19-4.19h19.23a4.19,4.19,0,0,1,4.19,4.19v2.79Zm3.21,40.06a6.89,6.89,0,0,0,6.3,3.21,7.44,7.44,0,0,0,6.56-3.35q2.28-3.35,2.28-11.39T359,206a7.5,7.5,0,0,0-6.56-3.28,7,7,0,0,0-6.16,3.22,12.15,12.15,0,0,0-1.67,4.42,33.92,33.92,0,0,0-.47,6v1.87Q344.08,225.46,346.09,228.81Zm113.48,19.76q-8.78,6.23-23.25,6.23-18.62,0-27.81-9.72t-9.18-26.87a49.19,49.19,0,0,1,2.48-16.14A32.68,32.68,0,0,1,409,190a31.42,31.42,0,0,1,11.53-7.57,42.37,42.37,0,0,1,15.34-2.61,41.29,41.29,0,0,1,15,2.55,29.73,29.73,0,0,1,11.06,7.3,30.94,30.94,0,0,1,6.76,11.53A47.11,47.11,0,0,1,471,216.21v3a4.19,4.19,0,0,1-4.19,4.19H426.27q0.26,6.7,2.81,9.18a9.36,9.36,0,0,0,6.83,2.48q5.37,0,7.51-3.56a4.34,4.34,0,0,1,3.69-2.2h18.17a4.19,4.19,0,0,1,4,5.47A26.21,26.21,0,0,1,459.57,248.58Zm-30.22-47q-2.68,2.41-3,7.64H445q-0.26-5.63-2.48-7.84a8.43,8.43,0,0,0-6.23-2.21A10,10,0,0,0,429.35,201.61Z" transform="translate(-174.52 -146)" fill="#fff"/>
</svg>
